<?xml version="1.0" encoding="iso-8859-1"?>
<!-- Generator: Adobe Illustrator 16.0.0, SVG Export Plug-In . SVG Version: 6.00 Build 0)  -->
<!DOCTYPE svg PUBLIC "-//W3C//DTD SVG 1.1//EN" "http://www.w3.org/Graphics/SVG/1.1/DTD/svg11.dtd">
<svg version="1.1" id="Capa_1" xmlns="http://www.w3.org/2000/svg" xmlns:xlink="http://www.w3.org/1999/xlink" x="0px" y="0px"
	 width="611.999px" height="611.999px" viewBox="0 0 611.999 611.999" style="enable-background:new 0 0 611.999 611.999;"
	 xml:space="preserve">
<g>
	<path d="M580.535,367.697c8.061,7.798,10.9,19.539,7.41,30.197c-38.828,118.626-150.546,204.562-281.904,204.562
		c-101.84,0-194.998-51.444-249.298-136.011c-2.339-3.643-6.725-5.382-10.888-4.195l-33.368,9.509
		c-7.252,2.067-14.021-4.494-12.182-11.808l28.866-114.778l5.675-22.702c1.829-7.317,10.897-9.907,16.315-4.659l28.251,27.362
		l73.606,71.254c5.417,5.244,3.125,14.385-4.124,16.454l-36.868,10.524c44.169,62.484,115.958,100.288,194.015,100.288
		c105.344,0,194.882-68.852,225.928-163.931c6.764-20.717,32.389-27.713,48.053-12.562L580.535,367.697z M559.211,151.65
		C505.443,63.506,410.247,9.542,306.042,9.542c-131.451,0-243.085,85.938-281.905,204.564c-3.488,10.659-0.65,22.398,7.412,30.195
		l0.508,0.492c15.666,15.152,41.292,8.153,48.055-12.566C111.14,137.152,200.616,68.305,306.042,68.305
		c77.958,0,149.747,37.706,193.917,100.19l-36.869,10.524c-7.25,2.069-9.54,11.21-4.124,16.455l73.704,71.351l28.25,27.363
		c5.42,5.248,14.486,2.658,16.316-4.66l5.676-22.702l28.783-114.88c1.832-7.313-4.938-13.867-12.188-11.798L559.211,151.65z
		 M301.18,284.285L284.6,309.46v0.304h21.342v-24.56c0-5.992,0.919-12.28,0.919-12.28h-0.304
		C306.557,272.924,304.25,279.68,301.18,284.285z M464.678,305.961c0,87.635-71.042,158.676-158.676,158.676
		c-87.635,0-158.676-71.041-158.676-158.676c0-87.634,71.041-158.675,158.676-158.675
		C393.636,147.286,464.678,218.327,464.678,305.961z M245.864,335.562h-46.673c0.768-14.126,44.982-20.726,44.982-54.963
		c0-23.336-19.495-33.622-37.459-33.622c-28.553,0-38.686,23.64-38.686,23.64l19.959,13.355c0,0,5.833-11.664,16.273-11.664
		c5.68,0,11.82,3.226,11.82,10.9c0,15.81-47.44,23.024-47.44,63.558c0,3.686,0.463,7.52,1.231,11.82h75.994V335.562L245.864,335.562
		z M345.555,309.764h-13.051v-60.947h-32.859l-42.372,66.938v16.27h48.667v26.562h26.563v-26.562h13.051V309.764L345.555,309.764z
		 M441.93,358.588V307.31c0-22.261-12.436-29.632-28.401-29.632c-10.44,0-19.65,4.761-24.1,12.592h-0.312
		c0,0,0.312-2.767,0.312-6.756v-34.697h-26.562v109.771h26.562v-35c0-3.687,0.304-7.067,1.379-10.138
		c2.307-6.903,7.675-11.664,15.81-11.664c5.836,0,8.75,3.07,8.75,10.441v46.361H441.93z"/>
</g>
<g>
</g>
<g>
</g>
<g>
</g>
<g>
</g>
<g>
</g>
<g>
</g>
<g>
</g>
<g>
</g>
<g>
</g>
<g>
</g>
<g>
</g>
<g>
</g>
<g>
</g>
<g>
</g>
<g>
</g>
</svg>
